<svg xmlns="http://www.w3.org/2000/svg" width="57" height="38" viewBox="0 0 57 38"><defs><clipPath id="7frpa"><path fill="#fff" d="M3 0h51a3 3 0 0 1 3 3v32a3 3 0 0 1-3 3H3a3 3 0 0 1-3-3V3a3 3 0 0 1 3-3z"/></clipPath></defs><g><g><g><path fill="#fff" d="M3 0h51a3 3 0 0 1 3 3v32a3 3 0 0 1-3 3H3a3 3 0 0 1-3-3V3a3 3 0 0 1 3-3z"/><path fill="none" stroke="#fff" stroke-linecap="round" stroke-linejoin="round" stroke-miterlimit="50" stroke-width="2" d="M3 0h51a3 3 0 0 1 3 3v32a3 3 0 0 1-3 3H3a3 3 0 0 1-3-3V3a3 3 0 0 1 3-3z" clip-path="url(&quot;#7frpa&quot;)"/></g><g><path fill="#fff" d="M39.702 20.179a.94.94 0 0 0-1.364 0l-1.352 1.403v-7.581c0-.553-.432-1.001-.965-1.001h-9.439c-.532 0-.964.448-.964 1 0 .553.432 1.002.964 1.002h8.475v6.58l-1.352-1.404a.94.94 0 0 0-1.363 0 1.028 1.028 0 0 0 0 1.416l2.997 3.112a.947.947 0 0 0 .682.293.948.948 0 0 0 .683-.293l2.998-3.112a1.027 1.027 0 0 0 0-1.415zm-8.301 2.82h-8.475v-6.582l1.352 1.404a.944.944 0 0 0 1.364 0 1.028 1.028 0 0 0 0-1.415l-2.998-3.113a.947.947 0 0 0-.682-.293.947.947 0 0 0-.683.293l-2.998 3.113a1.028 1.028 0 0 0 0 1.415.94.94 0 0 0 1.364 0l1.353-1.404V24c0 .552.431 1 .964 1h9.44c.532 0 .963-.448.963-1 0-.553-.431-1-.964-1z"/></g></g></g></svg>