<svg xmlns="http://www.w3.org/2000/svg" width="57" height="38" viewBox="0 0 57 38"><defs><clipPath id="aha9a"><path fill="#fff" d="M3 0h51a3 3 0 0 1 3 3v32a3 3 0 0 1-3 3H3a3 3 0 0 1-3-3V3a3 3 0 0 1 3-3z"/></clipPath></defs><g><g><path fill="#fff" d="M3 0h51a3 3 0 0 1 3 3v32a3 3 0 0 1-3 3H3a3 3 0 0 1-3-3V3a3 3 0 0 1 3-3z"/><path fill="none" stroke="#fff" stroke-linecap="round" stroke-linejoin="round" stroke-miterlimit="50" stroke-width="2" d="M3 0h51a3 3 0 0 1 3 3v32a3 3 0 0 1-3 3H3a3 3 0 0 1-3-3V3a3 3 0 0 1 3-3z" clip-path="url(&quot;#aha9a&quot;)"/></g></g></svg>